<svg width="80" height="80" viewBox="0 0 80 80" fill="none" xmlns="http://www.w3.org/2000/svg">
<g clip-path="url(#clip0_964_17595)" filter="url(#filter0_d_964_17595)">
<path d="M59.929 38.9947C59.5775 38.6426 59.16 38.3632 58.7004 38.1726C58.2408 37.982 57.7482 37.8839 57.2506 37.8839C56.7531 37.8839 56.2604 37.982 55.8008 38.1726C55.3413 38.3632 54.9238 38.6426 54.5722 38.9947L48.5335 45.0334C45.7339 44.1999 40.5097 42.3057 37.1987 38.9947C33.8876 35.6836 31.9934 30.4594 31.16 27.6598L37.1987 21.6211C37.5508 21.2696 37.8301 20.8521 38.0207 20.3925C38.2113 19.9329 38.3094 19.4403 38.3094 18.9427C38.3094 18.4452 38.2113 17.9525 38.0207 17.4929C37.8301 17.0333 37.5508 16.6159 37.1987 16.2643L22.0451 1.11076C21.6936 0.758646 21.2761 0.479298 20.8165 0.288701C20.3569 0.0981045 19.8642 0 19.3667 0C18.8692 0 18.3765 0.0981045 17.9169 0.288701C17.4573 0.479298 17.0398 0.758646 16.6883 1.11076L6.41418 11.3849C4.97459 12.8245 4.16387 14.802 4.19418 16.8212C4.28131 22.2159 5.70954 40.9533 20.4767 55.7204C35.2439 70.4876 53.9813 71.912 59.3797 72.003H59.4858C61.4861 72.003 63.3765 71.215 64.8085 69.783L75.0826 59.5088C75.4347 59.1573 75.7141 58.7398 75.9047 58.2802C76.0953 57.8207 76.1934 57.328 76.1934 56.8304C76.1934 56.3329 76.0953 55.8402 75.9047 55.3807C75.7141 54.9211 75.4347 54.5036 75.0826 54.1521L59.929 38.9947ZM59.4479 64.4224C54.72 64.3428 38.5435 63.0737 25.8335 50.3599C13.0818 37.6081 11.8467 21.3749 11.771 16.7417L19.3667 9.14594L29.1635 18.9427L24.2651 23.8411C23.8198 24.2861 23.4924 24.835 23.3125 25.4382C23.1326 26.0414 23.1058 26.68 23.2346 27.2961C23.3256 27.7318 25.5494 38.0627 31.8381 44.3515C38.1268 50.6402 48.4578 52.864 48.8934 52.9549C49.5092 53.0874 50.1484 53.0627 50.7522 52.8833C51.356 52.7039 51.9049 52.3755 52.3485 51.9283L57.2506 47.0299L67.0474 56.8267L59.4479 64.4224Z" fill="#0D5C63"/>
</g>
<defs>
<filter id="filter0_d_964_17595" x="-0.5" y="0" width="80" height="80" filterUnits="userSpaceOnUse" color-interpolation-filters="sRGB">
<feFlood flood-opacity="0" result="BackgroundImageFix"/>
<feColorMatrix in="SourceAlpha" type="matrix" values="0 0 0 0 0 0 0 0 0 0 0 0 0 0 0 0 0 0 127 0" result="hardAlpha"/>
<feOffset dy="4"/>
<feGaussianBlur stdDeviation="2"/>
<feComposite in2="hardAlpha" operator="out"/>
<feColorMatrix type="matrix" values="0 0 0 0 0 0 0 0 0 0 0 0 0 0 0 0 0 0 0.25 0"/>
<feBlend mode="normal" in2="BackgroundImageFix" result="effect1_dropShadow_964_17595"/>
<feBlend mode="normal" in="SourceGraphic" in2="effect1_dropShadow_964_17595" result="shape"/>
</filter>
<clipPath id="clip0_964_17595">
<rect width="72" height="72" fill="white" transform="translate(3.5)"/>
</clipPath>
</defs>
</svg>
